<?xml version="1.0" encoding="UTF-8"?><svg xmlns="http://www.w3.org/2000/svg" viewBox="0 0 1243 1023.5"><g id="a"><rect x="1" y=".5" width="1023" height="1023" style="fill:#cbbba0; stroke-width:0px;"/></g><g id="b"><rect x=".5" width="1024" height="128" style="fill:#634e42; stroke-width:0px;"/><rect y="895.5" width="1024" height="128" style="fill:#634e42; stroke-width:0px;"/></g><g id="c"><rect x="1" y="127.5" width="1024" height="128" style="fill:#a48a7b; stroke-width:0px;"/><rect y="767.5" width="1024" height="128" style="fill:#a48a7b; stroke-width:0px;"/></g><g id="e"><path d="M330.14,418.9h150.67v50.59h-50.55v154.3h-49.57v-154.3h-50.55v-50.59Z" style="stroke-width:0px;"/><path d="M486.73,418.9h47.08l16.95,114.7,24.81-114.7h46.91l24.87,114.55,16.97-114.55h46.84l-35.36,204.89h-48.61l-28.13-129-28.03,129h-48.61l-35.69-204.89Z" style="stroke-width:0px;"/><path d="M729.32,418.9h49.68v204.89h-49.68v-204.89Z" style="stroke-width:0px;"/><path d="M814.88,418.9h46.29l60.4,113.36v-113.36h46.72v204.89h-46.72l-60.07-112.5v112.5h-46.61v-204.89Z" style="stroke-width:0px;"/><path d="M124.96,393.84h53.41v111.32c0,23.37-1.75,41.16-5.24,53.35-3.49,12.2-10.51,22.53-21.06,31.01-10.55,8.47-24.06,12.71-40.53,12.71-17.41,0-30.9-2.79-40.47-8.38-9.57-5.59-16.96-13.77-22.18-24.53-5.22-10.76-8.29-24.06-9.23-39.9l50.94-8.25c.08,9.04.74,15.75,2,20.13,1.25,4.38,3.37,7.92,6.35,10.62,2.04,1.77,4.94,2.66,8.71,2.66,5.96,0,10.33-2.63,13.12-7.89,2.78-5.26,4.18-14.13,4.18-26.6v-126.24Z" style="fill:#936037; stroke-width:0px;"/><path d="M216.01,393.84h53.41v204.89h-53.41v-204.89Z" style="fill:#936037; stroke-width:0px;"/><path d="M295.54,393.84h161.99v50.59h-54.35v154.3h-53.29v-154.3h-54.35v-50.59Z" style="fill:#936037; stroke-width:0px;"/></g></svg>
