<?xml version="1.0" encoding="UTF-8"?><svg id="Realtime" xmlns="http://www.w3.org/2000/svg" viewBox="0 0 1024 1024"><defs><style>.cls-1{fill:#645031;}</style></defs><path class="cls-1" d="M772.3,132H124.8c-58.3,0-105.5,47.2-105.5,105.5V885c0,58.3,47.2,105.5,105.5,105.5H772.3c58.3,0,105.5-47.2,105.5-105.5V237.5c0-58.3-47.2-105.5-105.5-105.5Zm-202.7,740.4c-4.4-23.4-13.2-53.4-35.9-114.2-23.4-63.7-32.2-80.5-50.5-96.6-15.4-13.9-33.7-19.8-57.1-19.8h-74.6v120c0,49.8,1.5,76.8,5.9,110.5H200c4.4-33.7,5.9-55.6,5.9-109.8V368.9c0-45.4-1.5-72.5-5.9-107.6,32.2,1.5,59.3,2.2,109,2.2h190.3c118.6,0,187.4,61.5,187.4,166.9s-14.6,92.9-43.2,120c-18.3,16.8-33.7,24.9-69.5,36.6,37.3,11.7,54.2,28.5,77.6,80.5,11,23.4,21.2,48.3,54.2,127.3,8.1,20.5,16.8,38.8,35.1,77.6h-171.3Z"/><path class="cls-1" d="M466.4,386.5h-114.9v130.3h114.2c43.2,0,69.5-26.3,69.5-68.1s-23.4-62.2-68.8-62.2Z"/></svg>