<?xml version="1.0" encoding="UTF-8"?><svg id="Virtual" xmlns="http://www.w3.org/2000/svg" viewBox="0 0 1024 1024"><defs><style>.cls-1{fill:#645031;}</style></defs><path class="cls-1" d="M448.5,129.8c-237.7,0-430.4,192.7-430.4,430.4s192.7,430.4,430.4,430.4,430.4-192.7,430.4-430.4S686.2,129.8,448.5,129.8Zm320.4,264.3c-3.3,5.8-7.1,11.5-11.3,17-4.2,5.6-8.4,11.3-12.7,17.2l-247,326c-9,12.5-17.9,24.3-26.6,35.6-8.7,11.2-18,21.1-27.7,29.6-9.8,8.5-21.6,15.5-35.5,20.9-13.9,5.4-29.8,8.2-47.8,8.2s-32.5-2.7-43.5-8c-11-5.3-19.2-12.4-24.5-21.1-5.3-8.7-9.3-18.7-12-29.8-2.7-11.1-5.3-22.9-7.6-35.4l-70.3-323.3c-1.1-5.9-2.3-11.7-3.7-17.4-1.3-5.7-2.1-11.8-2.3-18.4-.2-6.6,.3-12.1,1.5-16.7,3.1-11.6,12.1-22.1,26.9-31.6,14.8-9.5,31.6-14.3,50.2-14.3s37.5,5.3,44.1,15.8c6.6,10.5,11.8,27.4,15.5,50.5l59.7,334.5,240-336.9c12.5-17.7,21.7-30,27.4-36.9,5.7-6.9,13.9-13.2,24.4-18.7,10.5-5.6,23.5-8.3,39.1-8.3s21.4,2.2,30,6.5c8.6,4.3,14.7,10,18.3,17.2,3.6,7.1,4.5,14.4,2.5,21.6-1.3,5-3.7,10.4-7,16.2Z"/></svg>